HIERARCHY
ROOT Hips
{
	OFFSET	0.00	0.00	0.00
	CHANNELS 6 Xposition Yposition Zposition Zrotation Xrotation Yrotation
	JOINT LeftUpLeg
	{
		OFFSET	 0.126116	-0.014019	-0.065224
		CHANNELS 3 Zrotation Xrotation Yrotation
		JOINT LeftLeg
		{
			OFFSET	 0.000000	 0.000000	 0.569914
			CHANNELS 3 Zrotation Xrotation Yrotation
			JOINT LeftFoot
			{
				OFFSET	 0.000000	 0.000000	 0.544423
				CHANNELS 3 Zrotation Xrotation Yrotation
				JOINT LeftToeBase
				{
					OFFSET	 0.000000	 0.000000	 0.207117
					CHANNELS 3 Zrotation Xrotation Yrotation
					End Site
					{
						OFFSET	 0.000000	 0.000000	 0.207117
					}
				}
			}
		}
	}
	JOINT RightUpLeg
	{
		OFFSET	-0.124023	-0.008373	-0.065224
		CHANNELS 3 Zrotation Xrotation Yrotation
		JOINT RightLeg
		{
			OFFSET	 0.000000	 0.000000	 0.570047
			CHANNELS 3 Zrotation Xrotation Yrotation
			JOINT RightFoot
			{
				OFFSET	 0.000000	 0.000000	 0.544354
				CHANNELS 3 Zrotation Xrotation Yrotation
				JOINT RightToeBase
				{
					OFFSET	 0.000000	 0.000000	 0.207540
					CHANNELS 3 Zrotation Xrotation Yrotation
					End Site
					{
						OFFSET	 0.000000	 0.000000	 0.207540
					}
				}
			}
		}
	}
	JOINT Spine
	{
		OFFSET	 0.000184	-0.007763	 0.117403
		CHANNELS 3 Zrotation Xrotation Yrotation
		JOINT Spine1
		{
			OFFSET	 0.000000	 0.000000	 0.137269
			CHANNELS 3 Zrotation Xrotation Yrotation
			JOINT Spine2
			{
				OFFSET	 0.000000	 0.000000	 0.156879
				CHANNELS 3 Zrotation Xrotation Yrotation
				JOINT LeftShoulder
				{
					OFFSET	 0.080501	-0.002496	 0.160144
					CHANNELS 3 Zrotation Xrotation Yrotation
					JOINT LeftArm
					{
						OFFSET	 0.000000	 0.000000	 0.164363
						CHANNELS 3 Zrotation Xrotation Yrotation
						JOINT LeftForeArm
						{
							OFFSET	 0.000000	 0.000000	 0.364576
							CHANNELS 3 Zrotation Xrotation Yrotation
							JOINT LeftHand
							{
								OFFSET	 0.000000	 0.000000	 0.360812
								CHANNELS 3 Zrotation Xrotation Yrotation
								JOINT LeftHandIndex1
								{
									OFFSET	 0.000000	 0.000000	 0.086006
									CHANNELS 3 Zrotation Xrotation Yrotation
									JOINT LeftHandIndex2
									{
										OFFSET	 0.000000	 0.000000	 0.047237
										CHANNELS 3 Zrotation Xrotation Yrotation
										JOINT LeftHandIndex3
										{
											OFFSET	-0.004284	-0.000551	 0.038165
											CHANNELS 3 Zrotation Xrotation Yrotation
											End Site
											{
												OFFSET	-0.004284	-0.000551	 0.038165
											}
										}
									}
								}
							}
						}
					}
				}
				JOINT Neck
				{
					OFFSET	 0.000000	 0.000000	 0.176489
					CHANNELS 3 Zrotation Xrotation Yrotation
					JOINT Head
					{
						OFFSET	 0.000000	-0.001747	 0.077940
						CHANNELS 3 Zrotation Xrotation Yrotation
						End Site
						{
							OFFSET	 0.000000	-0.001747	 0.077940
						}
					}
				}
				JOINT RightShoulder
				{
					OFFSET	-0.080363	 0.000306	 0.159706
					CHANNELS 3 Zrotation Xrotation Yrotation
					JOINT RightArm
					{
						OFFSET	 0.000000	 0.000000	 0.164196
						CHANNELS 3 Zrotation Xrotation Yrotation
						JOINT RightForeArm
						{
							OFFSET	 0.000000	 0.000000	 0.365611
							CHANNELS 3 Zrotation Xrotation Yrotation
							JOINT RightHand
							{
								OFFSET	 0.000000	 0.000000	 0.360648
								CHANNELS 3 Zrotation Xrotation Yrotation
								JOINT RightHandIndex1
								{
									OFFSET	 0.000000	 0.000000	 0.069977
									CHANNELS 3 Zrotation Xrotation Yrotation
									JOINT RightHandIndex2
									{
										OFFSET	 0.000000	 0.000000	 0.052305
										CHANNELS 3 Zrotation Xrotation Yrotation
										JOINT RightHandIndex3
										{
											OFFSET	 0.009002	-0.000782	 0.042196
											CHANNELS 3 Zrotation Xrotation Yrotation
											End Site
											{
												OFFSET	 0.009002	-0.000782	 0.042196
											}
										}
									}
								}
							}
						}
					}
				}
			}
		}
	}
}
MOTION
Frames:    9
Frame Time: 0.03333334
-0.643910	-0.124912	 1.249328	-161.479800	 10.070150	 10.305250	 1.016973	-15.078410	 163.229900	-9.023240	-32.151800	-3.776736	-87.200520	 80.162370	 82.909550	-2.385833	 28.452760	 0.000004	 22.003280	-51.984440	-175.167200	-27.526820	-58.734290	-14.318910	 36.102790	 40.483670	-43.434790	 2.384659	 28.388700	-0.000001	 18.414410	-22.247170	-16.361280	 45.540930	 26.977250	 5.378078	-1.378373	-2.190632	-10.345490	-91.776190	 78.527420	-180.000000	 17.937230	 47.043190	-43.643010	-5.668972	-0.080576	-0.488599	 8.101176	-3.071425	-4.274656	-4.131196	 21.524690	 0.986298	-5.167839	 0.733520	 3.519257	-1.378229	 35.397820	-2.634230	-13.969490	 16.426810	-7.932969	-24.424220	 3.987728	 5.289442	 89.782100	 78.203900	 180.000000	 5.330639	 58.171900	 1.565077	-4.670816	-0.143864	 0.456126	 89.196230	-10.980260	-2.409874	 5.715225	 19.176060	-3.692089	 5.027514	 0.245388	-9.378011	-2.350882	 35.473990	 5.254307
-0.644583	-0.124015	 1.250325	-162.552800	 9.686005	 10.191280	 4.155638	-15.007000	 163.545500	-8.279705	-31.706670	-3.335397	-115.209000	 81.705870	 109.601600	-2.385833	 28.452760	 0.000004	 19.637520	-52.076690	-176.418600	-20.812360	-59.394540	-8.553225	 49.647060	 49.853870	-50.290970	 2.384659	 28.388700	-0.000001	 18.463330	-23.526240	-17.751480	 46.313530	 30.449910	 4.619968	-1.553867	-3.639555	-9.965529	-91.776230	 78.527420	-180.000000	 17.770820	 46.986720	-43.602030	-4.579882	-0.089841	-0.486336	 8.878592	-2.625026	-4.602141	-4.131196	 21.524690	 0.986298	-5.167839	 0.733520	 3.519257	-1.378229	 35.397820	-2.634230	-14.017210	 16.365750	-7.701973	-24.381040	 3.751064	 4.752803	 89.782100	 78.203890	 180.000000	 5.864416	 58.357160	 1.226995	-6.593151	-0.159300	 0.451733	 88.357630	-8.593007	 1.900276	 5.715225	 19.176060	-3.692089	 5.027514	 0.245388	-9.378011	-2.350882	 35.473990	 5.254307
-0.644823	-0.124173	 1.250559	-164.121800	 10.502950	 9.728695	 6.901214	-16.085640	 164.478400	-6.173086	-31.486160	-2.207489	-153.979900	 80.488040	 145.950900	-2.385833	 28.452760	 0.000004	 20.831190	-53.153110	-175.210000	-18.341260	-59.469120	-6.418587	 57.302800	 53.920410	-55.103020	 2.384659	 28.388700	-0.000001	 20.367970	-23.555450	-16.591100	 45.890170	 29.597070	 6.506300	-1.295651	-2.885991	-11.181810	-91.776250	 78.527380	-179.999900	 17.503220	 46.949780	-43.704910	-3.594930	-0.098115	-0.484566	 9.569103	-2.181154	-4.926438	-4.131196	 21.524690	 0.986298	-5.167839	 0.733520	 3.519257	-1.378229	 35.397820	-2.634230	-13.823600	 17.044440	-7.864265	-24.218590	 3.570706	 5.276118	 89.782120	 78.203920	 180.000000	 5.518850	 58.460510	 1.882654	-8.473806	-0.173455	 0.444663	 85.414670	-9.476282	 4.446773	 5.715225	 19.176060	-3.692089	 5.027514	 0.245388	-9.378011	-2.350882	 35.473990	 5.254307
-0.646545	-0.123100	 1.250963	-163.492200	 10.416290	 7.012172	 7.995770	-14.998360	 167.515800	-4.258300	-30.108110	-1.157328	 170.319100	 75.448620	 179.925100	-2.385833	 28.452760	 0.000004	 28.660560	-51.213290	-168.708900	-18.250800	-60.163470	-6.384840	 71.845280	 54.595570	-67.263620	 2.384659	 28.388700	-0.000001	 20.718840	-24.299010	-13.506200	 46.197290	 31.537450	 4.083553	-1.196154	-4.016802	-10.902200	-91.776120	 78.527420	 179.999900	 17.430030	 47.021310	-43.991390	-3.065702	-0.102163	-0.481141	 10.068580	-1.802428	-5.184203	-4.131196	 21.524690	 0.986298	-5.167839	 0.733520	 3.519257	-1.378229	 35.397820	-2.634230	-13.290110	 17.161390	-8.380960	-24.154920	 4.144784	 7.241379	 89.782140	 78.203850	 180.000000	 4.148343	 58.257680	 3.526140	-9.018185	-0.177523	 0.442757	 84.346370	-9.886504	 8.542136	 5.715225	 19.176060	-3.692089	 5.027514	 0.245388	-9.378011	-2.350882	 35.473990	 5.254307
-0.645790	-0.123101	 1.250606	-163.892400	 9.536877	 7.673142	 10.580660	-14.791500	 166.648300	-7.267308	-30.236110	-2.682290	 173.646300	 81.243280	 178.774600	-2.385833	 28.452760	 0.000004	 28.816360	-50.524260	-169.975200	-17.896040	-59.991990	-6.065529	 72.338930	 56.848050	-66.598060	 2.384659	 28.388700	-0.000001	 21.246950	-21.901620	-13.642520	 45.299680	 28.371790	 5.496915	-0.587801	-2.368489	-10.891530	-91.776190	 78.527400	 180.000000	 17.926550	 46.510980	-44.599220	-2.778614	-0.104728	-0.481746	 10.340630	-1.453681	-5.421813	-4.131196	 21.524690	 0.986298	-5.167839	 0.733520	 3.519257	-1.378229	 35.397820	-2.634230	-12.713640	 17.212780	-9.355684	-24.251130	 4.155435	 8.852541	 89.782070	 78.203900	-180.000000	 1.675727	 58.149430	 5.787261	-6.161859	-0.155094	 0.450658	 85.712860	-18.683580	 12.849980	 5.715225	 19.176060	-3.692089	 5.027514	 0.245388	-9.378011	-2.350882	 35.473990	 5.254307
-0.644363	-0.122741	 1.250394	-163.531400	 9.825670	 9.398426	 14.688540	-17.144490	 164.672200	-9.500010	-31.029420	-3.907367	 33.604600	 86.914090	-40.285150	-2.385833	 28.452760	 0.000004	 28.078680	-51.159500	-171.911400	-17.945230	-59.601920	-6.100664	 74.195000	 57.656730	-68.473840	 2.384659	 28.388700	-0.000001	 19.772700	-22.617190	-15.703540	 45.643490	 28.026060	 6.119017	-0.472389	-1.831985	-11.499570	-91.776200	 78.527420	-180.000000	 18.946170	 46.336580	-45.264090	-2.869738	-0.103923	-0.481221	 10.055620	-1.372698	-5.492136	-4.131196	 21.524690	 0.986298	-5.167839	 0.733520	 3.519257	-1.378229	 35.397820	-2.634230	-12.704220	 17.556050	-9.108351	-24.156870	 3.613030	 8.907820	 89.782170	 78.203900	 179.999900	 1.623359	 57.761910	 5.629165	-4.266122	-0.140663	 0.457361	 88.544350	-22.771940	 16.106490	 5.715225	 19.176060	-3.692089	 5.027514	 0.245388	-9.378011	-2.350882	 35.473990	 5.254307
-0.643319	-0.122858	 1.249639	-161.732500	 9.718939	 9.501247	 17.328250	-18.364760	 164.261600	-8.990666	-31.432160	-3.684036	 0.820923	 71.983110	-7.358247	-2.385833	 28.452760	 0.000004	 28.022330	-50.498140	-171.917600	-18.515070	-59.609340	-6.578336	 75.124100	 58.597050	-68.907630	 2.384659	 28.388700	-0.000001	 18.635480	-21.635440	-15.437570	 45.294580	 26.467540	 5.941439	-0.665545	-1.473988	-11.180880	-91.776210	 78.527380	-180.000000	 20.529570	 45.363970	-46.125980	-3.818218	-0.095893	-0.483318	 8.573668	-1.809115	-5.240729	-4.131196	 21.524690	 0.986298	-5.167839	 0.733520	 3.519257	-1.378229	 35.397820	-2.634230	-13.531450	 17.685200	-7.320757	-23.846300	 3.592951	 7.755641	 89.782100	 78.203870	 180.000000	 1.421147	 57.668380	 5.526099	-3.740825	-0.136595	 0.459009	 91.293480	-28.175780	 18.041730	 5.715225	 19.176060	-3.692089	 5.027514	 0.245388	-9.378011	-2.350882	 35.473990	 5.254307
-0.643589	-0.122743	 1.249591	-160.838600	 9.325207	 7.580815	 18.167880	-17.121060	 166.144200	-5.981327	-30.723180	-2.060991	-2.266335	 58.608500	-4.817398	-2.385833	 28.452760	 0.000004	 29.105010	-49.092430	-169.499400	-18.031500	-59.994720	-6.183434	 79.347210	 56.770190	-73.459220	 2.384659	 28.388700	-0.000001	 19.056280	-22.267760	-14.154350	 45.929620	 29.735900	 2.806657	-2.014405	-3.608711	-9.073433	-91.776180	 78.527380	-180.000000	 22.161240	 43.332240	-46.948290	-4.651330	-0.088668	-0.484012	 8.683503	-1.869545	-5.103122	-4.131196	 21.524690	 0.986298	-5.167839	 0.733520	 3.519257	-1.378229	 35.397820	-2.634230	-14.685870	 17.926480	-7.745269	-24.912940	 2.683483	 6.357424	 89.782110	 78.203920	 180.000000	 3.313231	 58.463660	 3.914716	-3.911403	-0.137330	 0.456401	 94.233860	-30.245020	 16.682220	 5.715225	 19.176060	-3.692089	 5.027514	 0.245388	-9.378011	-2.350882	 35.473990	 5.254307
-0.642634	-0.121754	 1.249926	-158.925400	 9.273030	 7.413713	 14.259570	-16.469340	 165.861000	-0.985053	-30.694040	 0.493628	-7.015449	 49.837890	-2.472601	-2.385833	 28.452760	 0.000004	 28.701670	-48.243900	-169.282900	-18.601720	-59.935250	-6.675331	 89.205250	 53.497620	-83.296390	 2.384659	 28.388700	-0.000001	 16.640870	-23.878010	-16.235010	 47.265730	 33.951270	 1.069061	-3.175524	-5.617212	-8.225807	-91.776210	 78.527420	-180.000000	 22.952130	 42.587510	-47.167250	-4.101145	-0.093322	-0.482890	 9.433087	-1.590753	-5.270016	-4.131196	 21.524690	 0.986298	-5.167839	 0.733520	 3.519257	-1.378229	 35.397820	-2.634230	-15.328050	 17.212110	-9.238115	-26.289480	 1.824358	 6.068517	 89.782100	 78.203890	 180.000000	 4.240593	 58.655330	 2.981054	-5.030473	-0.146014	 0.453142	 94.969910	-27.459140	 12.796970	 5.715225	 19.176060	-3.692089	 5.027514	 0.245388	-9.378011	-2.350882	 35.473990	 5.254307
